<svg width="94" height="73" viewBox="0 0 94 73" fill="none" xmlns="http://www.w3.org/2000/svg">
<path d="M40.6137 0C24.0812 0 6.64936 4.11366 0 8.99427C7.12774 10.7373 25.2293 14.2235 40.6137 14.2235C55.9982 14.2235 74.0041 10.7373 81.084 8.99427C74.4825 4.11366 57.1463 0 40.6137 0Z" fill="#5A9898"/>
<path d="M0 8.99427C3.58779 30.3295 16.7334 73 40.6137 73C52.507 73 61.714 62.4159 68.3976 49.1547C69.6254 46.7187 70.768 44.1923 71.8265 41.6246C73.9681 36.4293 75.7654 31.0647 77.2265 25.937C78.0711 22.9731 78.8034 20.0883 79.425 17.361C80.1127 14.344 80.665 11.5197 81.084 8.99427C74.0041 10.7373 55.9982 14.2235 40.6137 14.2235C25.2293 14.2235 7.12774 10.7373 0 8.99427Z" fill="#6CB5B5"/>
<path d="M77.2265 25.937C79.9953 22.66 85.5328 18.0722 85.5328 25.937C85.5328 33.8017 76.3952 39.6724 71.8265 41.6246C70.768 44.1923 69.6254 46.7187 68.3976 49.1547C70.7607 48.3181 76.9509 45.8917 82.8061 42.8797C90.1252 39.1146 94 23.8453 94 14.2235C94 6.52608 84.2833 13.1079 79.425 17.361C78.8034 20.0883 78.0711 22.9731 77.2265 25.937Z" fill="#6CB5B5"/>
<path d="M40.7628 19C27.6808 19 17.2616 21.8739 12 25.2837C17.6401 26.5014 28.5893 28.7364 40.7628 28.7364C52.9363 28.7364 62.3978 26.5014 68 25.2836C62.7763 21.8739 53.8448 19 40.7628 19Z" fill="#622F00"/>
<path d="M12 25.2837C14.839 40.1891 21.8666 70 40.7628 70C59.5972 70 65.1625 40.3837 67.9724 25.4304L68 25.2836C62.3978 26.5014 52.9363 28.7364 40.7628 28.7364C28.5893 28.7364 17.6401 26.5014 12 25.2837Z" fill="#482302"/>
</svg>
